<?xml version="1.0" encoding="utf-8"?>
<svg version="1.1" xmlns:xlink="http://www.w3.org/1999/xlink" width="32px" height="34px" xmlns="http://www.w3.org/2000/svg">
  <g transform="matrix(1 0 0 1 -315 -13 )">
    <path d="M 331 13  C 339.96 13  347 20.48  347 30  C 347 39.52  339.96 47  331 47  C 322.04 47  315 39.52  315 30  C 315 20.48  322.04 13  331 13  Z " fill-rule="nonzero" fill="#ffffff" stroke="none" />
    <path d="M 331 13.5  C 339.68 13.5  346.5 20.76  346.5 30  C 346.5 39.24  339.68 46.5  331 46.5  C 322.32 46.5  315.5 39.24  315.5 30  C 315.5 20.76  322.32 13.5  331 13.5  Z " stroke-width="1" stroke="#aaaaaa" fill="none" />
  </g>
</svg>