<?xml version="1.0" encoding="utf-8"?>
<svg version="1.1" xmlns:xlink="http://www.w3.org/1999/xlink" width="39px" height="36px" xmlns="http://www.w3.org/2000/svg">
  <g transform="matrix(1 0 0 1 -348 -222 )">
    <path d="M 0 29.4545454545455  L 8.9375 29.4545454545455  L 8.9375 32.7272727272727  L 0 32.7272727272727  L 0 29.4545454545455  Z M 11.375 26.1818181818182  L 17.875 26.1818181818182  C 18.3151041666667 26.1818181818182  18.6959635416667 26.34375  19.017578125 26.6676136363636  C 19.3391927083333 26.9914772727273  19.5 27.375  19.5 27.8181818181818  L 19.5 34.3636363636364  C 19.5 34.8068181818182  19.3391927083333 35.1903409090909  19.017578125 35.5142045454545  C 18.6959635416667 35.8380681818182  18.3151041666667 36  17.875 36  L 11.375 36  C 10.9348958333333 36  10.5540364583333 35.8380681818182  10.232421875 35.5142045454545  C 9.91080729166667 35.1903409090909  9.75 34.8068181818182  9.75 34.3636363636364  L 9.75 27.8181818181818  C 9.75 27.375  9.91080729166667 26.9914772727273  10.232421875 26.6676136363636  C 10.5540364583333 26.34375  10.9348958333333 26.1818181818182  11.375 26.1818181818182  Z M 0 17  L 21.9375 17  L 21.9375 19  L 0 19  L 0 17  Z M 0 3.27272727272727  L 5.6875 3.27272727272727  L 5.6875 6.54545454545454  L 0 6.54545454545454  L 0 3.27272727272727  Z M 20.3125 29  L 39 29  L 39 32.7272727272727  L 20.3125 32.7272727272727  L 20.3125 29  Z M 8.125 0  L 14.625 0  C 15.0651041666667 0  15.4459635416667 0.161931818181815  15.767578125 0.485795454545456  C 16.0891927083333 0.809659090909086  16.25 1.19318181818182  16.25 1.63636363636363  L 16.25 8.18181818181818  C 16.25 8.625  16.0891927083333 9.00852272727272  15.767578125 9.33238636363637  C 15.4459635416667 9.65624999999999  15.0651041666667 9.81818181818182  14.625 9.81818181818182  L 8.125 9.81818181818182  C 7.68489583333333 9.81818181818182  7.30403645833333 9.65624999999999  6.982421875 9.33238636363637  C 6.66080729166667 9.00852272727272  6.5 8.625  6.5 8.18181818181818  L 6.5 1.63636363636363  C 6.5 1.19318181818182  6.66080729166667 0.809659090909086  6.982421875 0.485795454545456  C 7.30403645833333 0.161931818181815  7.68489583333333 0  8.125 0  Z M 24.375 13.0909090909091  L 30.875 13.0909090909091  C 31.3151041666667 13.0909090909091  31.6959635416667 13.2528409090909  32.017578125 13.5767045454545  C 32.3391927083333 13.9005681818182  32.5 14.2840909090909  32.5 14.7272727272727  L 32.5 21.2727272727273  C 32.5 21.7159090909091  32.3391927083333 22.0994318181818  32.017578125 22.4232954545455  C 31.6959635416667 22.7471590909091  31.3151041666667 22.9090909090909  30.875 22.9090909090909  L 24.375 22.9090909090909  C 23.9348958333333 22.9090909090909  23.5540364583333 22.7471590909091  23.232421875 22.4232954545455  C 22.9108072916667 22.0994318181818  22.75 21.7159090909091  22.75 21.2727272727273  L 22.75 14.7272727272727  C 22.75 14.2840909090909  22.9108072916667 13.9005681818182  23.232421875 13.5767045454545  C 23.5540364583333 13.2528409090909  23.9348958333333 13.0909090909091  24.375 13.0909090909091  Z M 33.3125 16.3636363636364  L 39 16.3636363636364  L 39 19.6363636363636  L 33.3125 19.6363636363636  L 33.3125 16.3636363636364  Z M 17.0625 3.27272727272727  L 39 3.27272727272727  L 39 7  L 17.0625 7  L 17.0625 3.27272727272727  Z " fill-rule="nonzero" fill="#555555" stroke="none" transform="matrix(1 0 0 1 348 222 )" />
  </g>
</svg>