<?xml version="1.0" encoding="utf-8"?>
<svg version="1.1" xmlns:xlink="http://www.w3.org/1999/xlink" width="38px" height="22px" xmlns="http://www.w3.org/2000/svg">
  <g transform="matrix(1 0 0 1 -626 -229 )">
    <path d="M 37.6192384769539 2.2680412371134  C 37.873079492318 2.52004581901488  38 2.8098510882016  38 3.13745704467354  C 38 3.46506300114547  37.873079492318 3.75486827033218  37.6192384769539 4.00687285223368  L 19.875751503006 21.6219931271478  C 19.621910487642 21.8739977090492  19.3299933199733 22  19 22  C 18.6700066800267 22  18.3780895123581 21.8739977090492  18.124248496994 21.6219931271478  L 0.380761523046092 4.00687285223368  C 0.126920507682031 3.75486827033218  0 3.46506300114547  0 3.13745704467354  C 0 2.8098510882016  0.126920507682031 2.52004581901488  0.380761523046092 2.2680412371134  L 2.28456913827655 0.378006872852235  C 2.53841015364062 0.126002290950742  2.83032732130929 0  3.16032064128257 0  C 3.49031396125585 0  3.78223112892452 0.126002290950742  4.03607214428858 0.378006872852235  L 19 15.233676975945  L 33.9639278557114 0.378006872852235  C 34.2177688710755 0.126002290950742  34.5096860387442 0  34.8396793587174 0  C 35.1696726786907 0  35.4615898463594 0.126002290950742  35.7154308617234 0.378006872852235  L 37.6192384769539 2.2680412371134  Z " fill-rule="nonzero" fill="#555555" stroke="none" transform="matrix(1 0 0 1 626 229 )" />
  </g>
</svg>